<svg width="42" height="15" viewBox="0 0 42 15" fill="none" xmlns="http://www.w3.org/2000/svg">
<path d="M23.1321 1.99902H24.6983L22.5303 4.81661L25.1087 7.9956H23.3578L21.0325 5.08951V7.9956H19.6304V1.99902H21.0325V4.76497L23.1321 1.99902Z" fill="#969696"/>
<path d="M28.8423 7.9956H27.3914L29.8373 1.99902H31.3159L33.7825 7.9956H32.3385L30.5835 3.47238L30.0307 4.90891L28.8423 7.9956Z" fill="#969696"/>
<path d="M40.6794 1.99902H42V7.9956H40.8102L37.8357 4.27079V7.9956H36.5217V1.99902H37.6919L40.6794 5.73859V1.99902Z" fill="#969696"/>
<path d="M21.7614 13.2383L21.3591 12.0743H19.8467L19.4513 13.2383H19.1738L20.4988 9.49414H20.7347L22.0389 13.2383H21.7614ZM20.6098 9.83519H20.5959C20.5682 9.9464 20.5405 10.0428 20.5196 10.1095L19.9369 11.837H21.2828L20.6931 10.1169L20.6168 9.83519H20.6098ZM25.2371 13.0381C25.2371 13.5349 25.1331 13.8982 24.9319 14.1354C24.7307 14.3727 24.4046 14.4913 23.9676 14.4913C23.7248 14.4913 23.475 14.4246 23.2183 14.2911V14.0316C23.4889 14.1873 23.7386 14.2689 23.9745 14.2689C24.6613 14.2689 25.0012 13.8833 25.0012 13.1048V12.7564H24.9943C24.7931 13.1197 24.4948 13.2976 24.0924 13.2976C23.8843 13.2976 23.7039 13.2457 23.5444 13.1345C23.3848 13.0233 23.2599 12.8676 23.1767 12.6674C23.0934 12.4672 23.0449 12.2226 23.0449 11.9556C23.0449 11.6739 23.0934 11.4218 23.1906 11.1994C23.2877 10.977 23.4195 10.8064 23.5999 10.6878C23.7733 10.5692 23.9745 10.5025 24.1965 10.5025C24.5642 10.5025 24.8278 10.6656 24.9943 10.9844H25.0012V10.5618H25.2371V13.0381ZM25.0012 11.5923C25.0012 11.4367 24.9666 11.2884 24.8972 11.1549C24.8278 11.0215 24.7307 10.9177 24.6127 10.8361C24.4879 10.762 24.3491 10.7249 24.2034 10.7249C23.9329 10.7249 23.7109 10.8361 23.5444 11.0511C23.3779 11.2735 23.2946 11.5627 23.2946 11.926C23.2946 12.2744 23.3709 12.5562 23.5166 12.7638C23.6623 12.9714 23.8704 13.0752 24.1341 13.0752C24.3907 13.0752 24.6058 12.9862 24.7654 12.8009C24.9249 12.6155 25.0082 12.3931 25.0082 12.1113V11.5923H25.0012ZM26.7495 11.9186C26.7495 12.2819 26.8258 12.5636 26.9854 12.7638C27.1449 12.964 27.36 13.0678 27.6375 13.0678C27.9219 13.0678 28.1925 12.9566 28.4561 12.7415V13.001C28.1994 13.1938 27.9081 13.2902 27.5889 13.2902C27.2559 13.2902 26.9923 13.1641 26.7981 12.9047C26.6038 12.6526 26.5067 12.3041 26.5067 11.8741C26.5067 11.622 26.5552 11.3848 26.6524 11.1697C26.7495 10.9547 26.8813 10.7842 27.0547 10.6656C27.2282 10.547 27.4224 10.4802 27.6375 10.4802C27.9427 10.4802 28.1786 10.5914 28.352 10.8213C28.5255 11.0511 28.6087 11.3699 28.6087 11.7851V11.8963H26.7634L26.7495 11.9186ZM28.352 11.6887C28.3451 11.3848 28.2757 11.1475 28.1439 10.977C28.0121 10.8064 27.8387 10.7249 27.6167 10.7249C27.3808 10.7249 27.1866 10.8064 27.0339 10.977C26.8813 11.1475 26.7911 11.3848 26.7564 11.6887H28.352ZM31.5572 13.2309V11.6813C31.5572 11.0437 31.3421 10.7249 30.912 10.7249C30.6761 10.7249 30.4819 10.8139 30.3223 10.9992C30.1697 11.1846 30.0864 11.4144 30.0864 11.6961V13.2309H29.8505V10.5618H30.0864V11.0437H30.0934C30.2737 10.6804 30.5582 10.4951 30.9467 10.4951C31.2172 10.4951 31.4254 10.5914 31.5641 10.7842C31.7098 10.977 31.7792 11.2513 31.7792 11.6072V13.2309H31.5502H31.5572ZM34.8108 13.1122C34.6305 13.2309 34.4085 13.2976 34.1518 13.2976C33.9298 13.2976 33.7286 13.2383 33.5552 13.1271C33.3817 13.0159 33.2499 12.8528 33.1528 12.6526C33.0557 12.445 33.014 12.2151 33.014 11.9482C33.014 11.6739 33.0695 11.4218 33.1736 11.1994C33.2777 10.977 33.4303 10.8064 33.6176 10.6878C33.8118 10.5692 34.0269 10.5025 34.2697 10.5025C34.464 10.5025 34.6513 10.547 34.8317 10.6285V10.9028C34.6513 10.7842 34.4501 10.7323 34.242 10.7323C34.0547 10.7323 33.8812 10.7842 33.7355 10.8806C33.5829 10.9844 33.465 11.1253 33.3887 11.3106C33.3054 11.496 33.2638 11.7036 33.2638 11.9334C33.2638 12.2744 33.347 12.5562 33.5135 12.7638C33.68 12.9714 33.902 13.0752 34.1726 13.0752C34.4223 13.0752 34.6374 13.001 34.8247 12.8602V13.1197L34.8108 13.1122ZM35.9417 14.4839C35.8653 14.4839 35.8029 14.469 35.7474 14.4468V14.2021C35.8098 14.2244 35.8792 14.2392 35.9555 14.2392C36.1567 14.2392 36.3093 14.0909 36.4273 13.8018L36.6562 13.216L35.7127 10.5692H35.9694L36.7186 12.7415L36.7741 12.9343H36.7811L36.8435 12.749L37.6413 10.5692H37.8911L36.677 13.7795C36.5799 14.0316 36.4758 14.217 36.3648 14.3282C36.2538 14.4394 36.1081 14.4913 35.9417 14.4913V14.4839Z" fill="#969696"/>
<path d="M11.0416 14.9905H10.4898H4.31965H3.95736H0L7.44094 0L14.9209 14.9905H11.0416ZM5.84128 11.4884H8.96815L7.4075 7.88265L5.84128 11.4884Z" fill="#969696"/>
</svg>
