<svg width="37" height="36" viewBox="0 0 37 36" fill="none" xmlns="http://www.w3.org/2000/svg">
<path fill-rule="evenodd" clip-rule="evenodd" d="M19.8972 0.530188C28.9901 1.27447 36.1377 8.87852 36.1377 18.15C36.1377 27.4215 28.9901 35.0256 19.8972 35.7699C28.6683 34.8666 34.9145 26.4398 34.9632 18.15C35.0052 11.0838 29.2301 2.85138 19.8972 1.88182C36.4772 4.36424 37.2569 28.5667 19.8972 29.8741V35.7688C28.2447 34.8378 35.4332 27.4204 35.4332 18.1489C35.4332 8.87741 28.4593 2.13581 19.8972 1.2049V0.530188ZM19.8972 1.88293C36.2317 5.82078 36.1045 27.5717 19.8972 29.3341C24.3884 28.7522 28.0512 25.5365 29.2821 21.2895H19.905V14.9465H29.2633C28.0147 10.7315 24.3662 7.54455 19.8972 6.96591V1.88293ZM17.0804 35.7798C7.93227 35.0907 0.723877 27.4613 0.723877 18.15C0.723877 8.83987 7.93006 1.21153 17.0771 0.521355C8.30717 1.42576 2.06315 9.85249 2.01338 18.1401C1.97136 25.2064 7.74648 33.4387 17.0793 34.4083V35.0841C8.51841 34.1532 1.54336 27.4116 1.54336 18.1401C1.54336 8.86969 8.72964 1.45226 17.076 0.521355H17.0782V6.25697C-0.281405 7.56443 0.49827 31.9259 17.0782 34.4083V35.7798H17.0804ZM17.0804 6.79806C0.873175 8.56049 0.744889 30.4704 17.0804 34.4083V29.3485C11.479 28.6826 7.136 23.9232 7.136 18.15C7.136 12.3769 11.479 7.61854 17.0804 6.95156V6.79806Z" fill="#387C43"/>
</svg>
