<svg width="18" height="36" viewBox="0 0 18 36" fill="none" xmlns="http://www.w3.org/2000/svg">
<path fill-rule="evenodd" clip-rule="evenodd" d="M17.0854 35.7588C7.99257 35.0145 0.845002 27.4104 0.845002 18.1389C0.845001 8.86742 7.99257 1.26337 17.0854 0.519089L17.0854 6.41482L17.0854 0.520191C8.73796 1.4511 1.54947 8.86852 1.54947 18.14C1.54947 27.4115 8.52341 34.1531 17.0854 35.084L17.0854 35.7588ZM17.0854 34.406C0.751001 30.4682 0.878179 8.71724 17.0854 6.95481C12.5943 7.53676 8.93149 10.7524 7.7006 14.9995C7.7006 14.9995 7.12068 16.2128 7.12068 18.0586C7.12068 19.9044 7.71941 21.3424 7.71941 21.3424C8.96799 25.5575 12.6164 28.7444 17.0854 29.323L17.0854 34.406Z" fill="#B7B7B7"/>
</svg>
