<svg width="12" height="13" viewBox="0 0 12 13" fill="none" xmlns="http://www.w3.org/2000/svg">
<path d="M11.6735 9.30679L9.99885 7.63215C9.40077 7.03407 8.38402 7.27333 8.14479 8.05081C7.96537 8.58911 7.36728 8.88815 6.82901 8.76851C5.63284 8.46947 4.01801 6.91445 3.71897 5.65848C3.53954 5.12018 3.89839 4.52209 4.43667 4.34269C5.21418 4.10346 5.45341 3.08671 4.85533 2.48863L3.18069 0.813994C2.70222 0.395335 1.98452 0.395335 1.56586 0.813994L0.429504 1.95035C-0.706856 3.14652 0.549121 6.31637 3.36012 9.12737C6.17111 11.9384 9.34096 13.2542 10.5371 12.058L11.6735 10.9216C12.0922 10.4431 12.0922 9.72545 11.6735 9.30679Z" fill="black"/>
</svg>
