<svg width="16" height="16" viewBox="0 0 16 16" fill="none" xmlns="http://www.w3.org/2000/svg">
<path d="M10.6865 6.76923C10.6865 5.58333 10.2799 4.56891 9.46669 3.72596C8.65344 2.88301 7.67477 2.46154 6.53067 2.46154C5.38656 2.46154 4.40789 2.88301 3.59465 3.72596C2.78141 4.56891 2.37479 5.58333 2.37479 6.76923C2.37479 7.95513 2.78141 8.96955 3.59465 9.8125C4.40789 10.6554 5.38656 11.0769 6.53067 11.0769C7.67477 11.0769 8.65344 10.6554 9.46669 9.8125C10.2799 8.96955 10.6865 7.95513 10.6865 6.76923ZM15.4361 14.7692C15.4361 15.1026 15.3186 15.391 15.0836 15.6346C14.8486 15.8782 14.5703 16 14.2487 16C13.9148 16 13.6365 15.8782 13.4138 15.6346L10.232 12.3462C9.125 13.141 7.89122 13.5385 6.53067 13.5385C5.64631 13.5385 4.8006 13.3606 3.99354 13.0048C3.18648 12.649 2.49074 12.1683 1.90632 11.5625C1.3219 10.9567 0.858078 10.2356 0.514847 9.39904C0.171616 8.5625 0 7.6859 0 6.76923C0 5.85256 0.171616 4.97596 0.514847 4.13942C0.858078 3.30288 1.3219 2.58173 1.90632 1.97596C2.49074 1.37019 3.18648 0.889423 3.99354 0.533654C4.8006 0.177885 5.64631 0 6.53067 0C7.41503 0 8.26074 0.177885 9.06779 0.533654C9.87485 0.889423 10.5706 1.37019 11.155 1.97596C11.7394 2.58173 12.2033 3.30288 12.5465 4.13942C12.8897 4.97596 13.0613 5.85256 13.0613 6.76923C13.0613 8.17949 12.6779 9.45833 11.911 10.6058L15.0929 13.9038C15.3217 14.141 15.4361 14.4295 15.4361 14.7692Z" fill="black"/>
</svg>
