<svg width="26" height="26" viewBox="0 0 26 26" fill="none" xmlns="http://www.w3.org/2000/svg">
<g clip-path="url(#clip0_877_2225)">
<path d="M13.0001 14.6448C5.18802 14.6448 0.885681 18.3404 0.885681 25.0511C0.885681 25.5752 1.31047 26 1.83458 26H24.1655C24.6896 26 25.1144 25.5752 25.1144 25.0511C25.1144 18.3408 20.8121 14.6448 13.0001 14.6448ZM2.81801 24.1022C3.19125 19.0847 6.61203 16.5426 13.0001 16.5426C19.3881 16.5426 22.8089 19.0847 23.1825 24.1022H2.81801Z" fill="black"/>
<path d="M13 0C9.4115 0 6.70557 2.76037 6.70557 6.42063C6.70557 10.1881 9.52921 13.2527 13 13.2527C16.4707 13.2527 19.2944 10.1881 19.2944 6.42093C19.2944 2.76037 16.5884 0 13 0ZM13 11.3552C10.5755 11.3552 8.60337 9.14174 8.60337 6.42093C8.60337 3.80006 10.4525 1.8978 13 1.8978C15.5067 1.8978 17.3966 3.84211 17.3966 6.42093C17.3966 9.14174 15.4244 11.3552 13 11.3552Z" fill="black"/>
</g>
<defs>
<clipPath id="clip0_877_2225">
<rect width="26" height="26" fill="white"/>
</clipPath>
</defs>
</svg>
